<?xml version="1.0" standalone="no"?>
<!DOCTYPE svg PUBLIC "-//W3C//DTD SVG 20010904//EN"
 "http://www.w3.org/TR/2001/REC-SVG-20010904/DTD/svg10.dtd">
<svg version="1.0" xmlns="http://www.w3.org/2000/svg"
 width="726.000000pt" height="720.000000pt" viewBox="0 0 726.000000 720.000000"
 preserveAspectRatio="xMidYMid meet">

<g transform="translate(0.000000,720.000000) scale(0.100000,-0.100000)"
fill="#000000" stroke="none">
<path d="M3570 6398 c-86 -32 -413 -155 -533 -200 -59 -23 -111 -46 -115 -52
-4 -6 -9 -164 -12 -350 l-5 -339 -140 -52 -140 -52 -5 -428 -5 -428 -40 -14
c-22 -8 -111 -33 -198 -57 -87 -24 -160 -45 -162 -47 -6 -6 -10 -751 -7 -1264
l2 -480 183 -106 c100 -59 286 -167 412 -240 127 -73 358 -207 515 -297 156
-91 293 -167 305 -169 18 -4 165 79 770 433 50 28 212 123 360 209 149 87 276
162 283 167 9 8 12 192 10 881 l-3 871 -175 47 c-96 26 -187 52 -202 58 l-28
11 -1 402 c-1 398 -2 444 -10 452 -2 2 -65 26 -139 54 l-135 50 -6 264 c-4
144 -7 301 -8 348 l-1 85 -193 72 c-105 39 -257 96 -337 126 -188 71 -176 69
-240 45z m235 -219 c88 -33 205 -78 260 -99 l100 -38 5 -343 5 -344 35 -17
c19 -9 78 -33 131 -51 53 -19 106 -40 118 -47 l23 -12 -7 -326 c-4 -180 -9
-330 -11 -334 -4 -5 -28 0 -139 32 -16 5 -73 20 -125 34 -52 13 -117 31 -145
40 -47 14 -98 28 -282 76 -43 12 -93 26 -110 31 l-33 11 0 724 c0 398 3 724 8
724 4 0 79 -27 167 -61z m145 -1681 c41 -11 116 -31 165 -45 50 -14 106 -29
125 -34 19 -6 53 -14 75 -20 22 -5 51 -13 65 -18 32 -11 162 -47 328 -91 23
-6 42 -16 42 -22 0 -7 -208 -428 -462 -935 l-463 -923 -5 877 c-3 483 -4 960
-1 1060 l4 183 26 -6 c14 -4 60 -15 101 -26z m913 -1759 c-5 -4 -87 -53 -183
-109 -273 -159 -297 -173 -430 -251 -69 -40 -138 -81 -155 -90 -16 -9 -54 -31
-84 -48 -29 -18 -55 -30 -57 -28 -2 2 202 415 454 919 l457 915 3 -651 c1
-357 -1 -653 -5 -657z"/>
<path d="M3877 5903 c-4 -3 -7 -35 -7 -70 l0 -64 55 -25 c88 -38 95 -36 95 39
0 34 -4 67 -8 73 -4 6 -33 21 -65 33 -66 24 -62 23 -70 14z"/>
<path d="M3802 5329 l3 -73 45 -16 c25 -9 53 -20 63 -25 29 -12 38 7 35 76 -3
62 -4 64 -39 81 -19 9 -52 20 -73 23 l-37 7 3 -73z"/>
<path d="M4150 4941 l0 -72 48 -20 c26 -11 59 -23 75 -26 l27 -5 0 71 0 72
-47 20 c-27 11 -60 23 -75 26 l-28 6 0 -72z"/>
<path d="M841 1458 c-49 -14 -130 -68 -170 -113 -60 -69 -76 -117 -76 -230 0
-89 3 -106 27 -156 73 -147 242 -234 389 -199 30 7 75 23 100 36 54 27 152
119 147 136 -3 7 -32 27 -67 46 l-62 35 -32 -31 c-49 -46 -89 -62 -155 -62
-67 0 -105 20 -154 81 -73 91 -34 240 77 290 77 35 158 21 227 -40 l35 -31 57
31 c32 17 60 38 63 47 10 25 -105 126 -172 151 -61 23 -172 27 -234 9z"/>
<path d="M1532 1445 c-112 -51 -178 -129 -208 -245 -39 -153 21 -303 155 -389
91 -58 179 -73 279 -47 109 29 188 95 236 196 28 58 31 75 31 155 0 76 -4 99
-26 146 -38 80 -90 133 -171 174 -65 32 -78 35 -157 34 -69 0 -97 -5 -139 -24z
m216 -150 c129 -55 162 -216 64 -318 -41 -43 -75 -57 -139 -57 -72 0 -125 28
-166 86 -24 34 -29 52 -30 100 -1 150 135 245 271 189z"/>
<path d="M2120 1120 l0 -350 195 0 195 0 68 34 c80 41 143 103 173 171 18 40
22 68 22 141 -1 111 -20 160 -90 235 -90 96 -167 119 -403 119 l-160 0 0 -350z
m364 179 c82 -30 136 -106 136 -188 -1 -52 -40 -121 -89 -156 -39 -28 -51 -30
-142 -33 l-99 -4 0 194 c0 107 3 198 7 201 15 15 134 6 187 -14z"/>
<path d="M2892 1123 l3 -348 218 -3 217 -2 0 75 0 75 -135 0 -135 0 0 65 0 64
118 3 117 3 3 73 3 72 -121 0 -121 0 3 58 3 57 133 3 132 3 0 74 0 75 -220 0
-220 0 2 -347z"/>
<path d="M3903 1449 c-74 -28 -155 -106 -194 -184 -29 -60 -31 -68 -27 -162 2
-80 8 -107 28 -147 72 -141 238 -227 383 -197 33 7 80 22 105 33 52 25 142
111 142 136 0 21 -112 84 -134 76 -9 -3 -16 -10 -16 -14 0 -5 -21 -22 -47 -39
-39 -26 -56 -31 -108 -31 -83 0 -141 36 -179 111 -14 29 -26 62 -26 73 0 72
62 165 127 193 39 16 111 17 150 2 15 -5 44 -26 65 -46 l36 -35 63 33 c35 19
65 40 67 47 8 25 -109 127 -172 151 -75 28 -190 28 -263 0z"/>
<path d="M4440 1122 l0 -350 76 -4 c42 -2 78 -1 80 1 2 2 4 53 4 113 l0 108
45 0 c50 0 47 4 133 -146 40 -68 43 -72 84 -77 24 -3 64 -2 90 1 l48 7 -65
117 c-36 64 -65 122 -65 128 0 7 15 30 33 53 45 56 60 97 59 161 -1 90 -47
167 -126 209 -37 20 -58 22 -218 25 l-178 4 0 -350z m329 183 c33 -16 41 -33
41 -79 0 -55 -28 -71 -124 -71 l-81 0 -3 69 c-2 38 -1 75 2 83 7 18 128 18
165 -2z"/>
<path d="M5302 1458 c-9 -12 -53 -128 -162 -428 -21 -58 -49 -136 -63 -174
-14 -39 -24 -73 -21 -78 3 -4 40 -8 83 -8 l78 0 18 48 c28 75 24 73 159 70
l121 -3 21 -53 c11 -28 23 -55 26 -58 7 -6 158 -7 165 -1 2 3 -53 160 -123
351 l-128 346 -82 0 c-53 0 -85 -4 -92 -12z m128 -329 c12 -33 19 -67 16 -75
-6 -16 -101 -20 -111 -4 -7 11 8 70 31 125 19 47 33 37 64 -46z"/>
<path d="M5647 1463 c-9 -8 -9 -90 -1 -120 6 -20 13 -22 88 -25 l81 -3 5 -267
c3 -146 7 -269 10 -271 3 -3 39 -7 80 -8 l75 -2 5 274 5 274 85 5 85 5 0 70 0
70 -256 3 c-140 1 -258 -1 -262 -5z"/>
<path d="M6220 1151 c0 -175 3 -333 6 -350 l7 -31 212 0 212 0 7 65 c4 36 4
70 1 75 -4 6 -66 10 -141 10 l-135 0 3 63 3 62 120 5 120 5 0 70 0 70 -100 2
c-144 4 -145 4 -145 58 0 59 13 65 154 65 l116 0 0 75 0 75 -220 0 -220 0 0
-319z"/>
</g>
</svg>
